<svg id="圖層_2" data-name="圖層 2" xmlns="http://www.w3.org/2000/svg" viewBox="0 0 1080 550.393"><title>橫式紅底_RGB (1)</title><rect width="1080" height="550.393" fill="#e60a0f"/><path d="M206.722,160.719c3.06,3.476,2.6,6.3.759,10.5s-8.742,16.116-20.5,26.53c-11.862,10.51-22.682,16.271-27.2,18.182s-7.262,1.39-10.322-2.087l-3.693-4.2c-3.06-3.477-3.4-8.18-.759-10.5,0,0,17.947-11.706,25.78-18.586s21.919-26.126,21.919-26.126c2.64-2.324,7.262-1.389,10.321,2.088Z" fill="#fff"/><path d="M206.583,210.744l-3.749-4.259c-3.1-3.527-7.816-4.45-10.534-2.059,0,0-14.517,19.725-22.569,26.792s-26.462,19.13-26.462,19.13c-2.717,2.39-2.4,7.185.706,10.712l3.744,4.258c3.105,3.527,5.905,4.041,10.538,2.06a89.235,89.235,0,0,0,12.075-6.71V333.3c0,4.346,3.257,7.869,7.276,7.869h6.367c4.019,0,7.276-3.523,7.276-7.869V243.555c8.879-9.232,14.426-18.476,16.037-22.1C209.2,217.158,209.683,214.271,206.583,210.744Z" fill="#fff"/><path d="M349.192,224.443H278.031c-.152,0-.279.074-.427.083-.148-.009-.27-.083-.418-.083H262.864a4.742,4.742,0,0,1-4.742-4.742V209.76a4.744,4.744,0,0,1,4.742-4.742h14.322a7.855,7.855,0,0,0,7.869-7.843v-5.229a7.858,7.858,0,0,0-7.869-7.847H262.864a4.741,4.741,0,0,1-4.742-4.738V162.353a7.858,7.858,0,0,0-7.842-7.873h-5.23a7.862,7.862,0,0,0-7.846,7.873v17.008a4.738,4.738,0,0,1-4.738,4.738H217.491a7.862,7.862,0,0,0-7.873,7.847v5.229a7.858,7.858,0,0,0,7.873,7.843h14.975a4.741,4.741,0,0,1,4.738,4.742V219.7a4.739,4.739,0,0,1-4.738,4.742H217.491a7.861,7.861,0,0,0-7.873,7.842v5.234a7.861,7.861,0,0,0,7.873,7.843h14.975A4.738,4.738,0,0,1,237.2,250.1v8.957a4.741,4.741,0,0,1-4.738,4.742H217.491a7.858,7.858,0,0,0-7.873,7.842v5.23a7.862,7.862,0,0,0,7.873,7.847h14.975a4.737,4.737,0,0,1,4.738,4.737V306.9a4.741,4.741,0,0,1-3.763,4.642c-13.12,2.774-26.257,5.382-26.257,5.382a8.28,8.28,0,0,0-5.844,10.138l1.376,5.425c1.137,4.494,3.806,6.092,9.963,6.131s14.762-.962,34.405-6A110.756,110.756,0,0,0,283.4,316.1c4.676-3.183,6.975-5.643,5.839-10.137l-1.376-5.421a8.271,8.271,0,0,0-9.959-6.136s-5.713,2.848-13.08,6.166a4.747,4.747,0,0,1-6.7-4.32v-6.793a4.74,4.74,0,0,1,4.742-4.737h14.322a7.858,7.858,0,0,0,7.869-7.847v-5.23a7.855,7.855,0,0,0-7.869-7.842H262.864a4.744,4.744,0,0,1-4.742-4.742V250.1a4.741,4.741,0,0,1,4.742-4.742h14.322c.148,0,.27-.074.418-.083.148.009.275.083.427.083h17.7a4.833,4.833,0,0,1,4.834,4.829V333.3c0,4.346,3.257,7.869,7.272,7.869h6.37c4.019,0,7.276-3.523,7.276-7.869V250.191a4.829,4.829,0,0,1,4.83-4.829h22.874a7.861,7.861,0,0,0,7.872-7.843v-5.234A7.861,7.861,0,0,0,349.192,224.443Z" fill="#fff"/><path d="M312.19,153.331c-.385-.021-.747.055-1.127.056s-.743-.077-1.128-.056c-11.761.639-19.451,11.667-17.482,23.865,1.935,11.982,16.09,36.9,16.09,36.9a2.8,2.8,0,0,0,5.039,0s14.155-24.921,16.09-36.9C331.641,165,323.951,153.97,312.19,153.331Zm-1.127,28.705a8.974,8.974,0,1,1,8.974-8.974A8.974,8.974,0,0,1,311.063,182.036Z" fill="#fff"/><path d="M323.516,108.707H174.97a64.259,64.259,0,0,0-64.183,64.183V321.436a64.258,64.258,0,0,0,64.183,64.182H323.516A64.258,64.258,0,0,0,387.7,321.436V172.89A64.259,64.259,0,0,0,323.516,108.707Zm47.476,212.729a47.529,47.529,0,0,1-47.475,47.475H174.97a47.53,47.53,0,0,1-47.477-47.475V172.89a47.532,47.532,0,0,1,47.477-47.478H323.517a47.53,47.53,0,0,1,47.475,47.478Z" fill="#fff"/><path d="M563.128,170.206l-123.04-.143c-14.849-.015-22.054,7.4-22.07,22.019l-.142,122.139c-.021,14.844,7.169,22.055,22.019,22.07l123.04.143c14.619.015,22.049-7.176,22.07-22.02l.142-122.138C585.162,177.656,577.748,170.221,563.128,170.206ZM561.7,306.516a6.817,6.817,0,0,1-7.488,7.489l-105.512-.12c-4.906-.011-7.5-2.608-7.492-7.51l.123-106.394a7.583,7.583,0,0,1,1.9-5.467,7.458,7.458,0,0,1,5.588-2.022l105.517.12c4.693.012,7.492,2.817,7.487,7.51Z" fill="#fff"/><path d="M444.748,460.25q-4.509,4.011-13.635,4.011c-6.815,0-12.765-3-17.979-9.159a6.749,6.749,0,0,1-2.138-4.34,4.183,4.183,0,0,1,1.134-2.941,3.711,3.711,0,0,1,2.811-1.274,4.927,4.927,0,0,1,3.541,1.672,64,64,0,0,0,5.549,5.814,11.377,11.377,0,0,0,7.349,2.878c3.544,0,6.019-.8,7.486-2.406,1.405-1.6,2.139-4.147,2.139-7.753v-24.8a4.077,4.077,0,0,1,1.206-3,4.332,4.332,0,0,1,3.071-1.138,4.286,4.286,0,0,1,3.01,1.138,4.075,4.075,0,0,1,1.2,3v25.069C449.5,453.032,447.891,457.446,444.748,460.25Z" fill="#fff"/><path d="M514.417,463.061a4.7,4.7,0,0,1-3.074,1.2,4.14,4.14,0,0,1-3.544-1.934l-15.572-21.793-7.688,5.752V460.12a3.9,3.9,0,0,1-4.076,4.141,4.559,4.559,0,0,1-3.208-1.138,3.961,3.961,0,0,1-1.2-3V421.95a3.858,3.858,0,0,1,1.138-2.935,3.66,3.66,0,0,1,2.872-1.206,5.136,5.136,0,0,1,3.208,1.069,4.174,4.174,0,0,1,1.269,3.072v13.9L507.4,418.611a4.249,4.249,0,0,1,2.537-.939,4.342,4.342,0,0,1,4.277,4.346,3.873,3.873,0,0,1-1.669,3.209l-13.57,10.3,15.911,22.321a4.411,4.411,0,0,1,.867,2.344A3.787,3.787,0,0,1,514.417,463.061Z" fill="#fff"/><path d="M568.551,457.714c-3.743,4.339-9.158,6.547-16.24,6.547-6.951,0-12.367-2.208-16.309-6.616-3.811-4.209-5.683-9.824-5.683-16.843,0-6.815,1.872-12.3,5.749-16.508,3.945-4.346,9.292-6.553,16.041-6.553,6.619,0,11.966,2.207,15.976,6.621,3.808,4.278,5.745,9.756,5.745,16.44C573.83,448.02,572.027,453.635,568.551,457.714ZM562.4,430.039a11.906,11.906,0,0,0-10.159-4.812,12.032,12.032,0,0,0-10.228,4.812c-2.2,2.941-3.274,6.622-3.274,11.161,0,4.482,1.07,8.089,3.342,10.9,2.406,3.072,5.814,4.607,10.16,4.607,4.411,0,7.753-1.535,10.091-4.607,2.073-2.742,3.143-6.348,3.143-10.9A19.178,19.178,0,0,0,562.4,430.039Z" fill="#fff"/><path d="M629.16,443.276a13.232,13.232,0,0,1-9.957,4.209H600.957v12.964c0,2.543-1.473,3.812-4.278,3.812s-4.212-1.337-4.212-3.874V425.562a5.937,5.937,0,0,1,2.273-4.943,8.308,8.308,0,0,1,5.278-1.672H619.8a12.752,12.752,0,0,1,9.624,4.072,14.7,14.7,0,0,1,3.743,10.029A14.288,14.288,0,0,1,629.16,443.276Zm-6.012-14.909a5.639,5.639,0,0,0-4.346-1.934H603.363q-2.406,0-2.406,3v10.433H618.8a5.493,5.493,0,0,0,4.346-2.008,7.329,7.329,0,0,0,1.669-4.744A7.492,7.492,0,0,0,623.148,428.367Z" fill="#fff"/><path d="M689.819,462.992a5.6,5.6,0,0,1-3.613,1.337,3.912,3.912,0,0,1-3.743-2.605l-3.407-7.287H655.33l-3.408,7.287a4.073,4.073,0,0,1-3.879,2.605,5.127,5.127,0,0,1-3.476-1.337,4.052,4.052,0,0,1-1.536-3.277,4.437,4.437,0,0,1,.535-2.138l18.982-37.293c.8-1.673,2.338-2.543,4.614-2.543a4.8,4.8,0,0,1,4.675,2.543l18.92,37.293a4.553,4.553,0,0,1,.6,2.138A4.26,4.26,0,0,1,689.819,462.992Zm-22.657-33.618-8.357,17.508H675.58Z" fill="#fff"/><path d="M742.933,424.225l-17.111,22.322v13.5a4.013,4.013,0,0,1-4.141,4.21,4.34,4.34,0,0,1-3.078-1.138,4.112,4.112,0,0,1-1.2-3.072v-13.5l-17.111-22.322a3.692,3.692,0,0,1-.939-2.474,3.512,3.512,0,0,1,1.473-2.873,5.271,5.271,0,0,1,3.271-1.137,3.814,3.814,0,0,1,3.078,1.741l14.437,19.852,14.369-19.852a3.718,3.718,0,0,1,3.071-1.741,5.421,5.421,0,0,1,3.277,1.137,3.705,3.705,0,0,1,1.473,2.873A4.442,4.442,0,0,1,742.933,424.225Z" fill="#fff"/><path d="M983.887,186.883c-1.663-1.466-4.368-2.3-7.7-2.3l-16.24-.019.028-27.689c-.2-6.451-3.94-9.788-11.434-9.8-7.493.406-11.457,3.733-11.466,9.77l-.028,27.689-66.618-.076c-3.746,0-6.249.82-7.705,2.069-2.083,1.664-2.917,4.784-2.922,9.365,0,4.166.82,7.079,2.9,8.747,1.871,1.668,4.369,2.5,7.7,2.507l66.617.076-.118,101.8q0,3.126-3.124,3.121c-3.564,0-43.317,2.505-89.52,1.526l.135-114.255A232.418,232.418,0,0,0,855.88,166.33c.632-2.706,1.051-5.623,1.471-8.743,0-4.166-1.452-7.079-4.157-8.544a21.743,21.743,0,0,0-9.572-2.088c-3.332.618-5.835,2.908-7.3,6.65a324.085,324.085,0,0,1-35.686,80.11c-1.673,2.5-2.715,4.784-2.715,6.867,0,3.332,1.028,6.037,3.318,7.917,2.493,2.29,5.825,3.333,9.779,3.337a11.314,11.314,0,0,0,9.789-4.774,4.48,4.48,0,0,1,.839-1.249l-.081,67.084c-36.455-1.733-73.89-6.087-98.871-15.779,1.456-.83,3.12-1.659,4.788-2.7,16.458-10.392,29.38-21.618,38.759-33.476,6.674-9.36,10.222-17.263,10.854-23.72,0-6.245-2.281-10.618-6.853-13.54-2.71-1.461-7.7-2.3-15.194-2.724l-44.759-.052.029-27.688,73.281.085c3.747,0,6.664-1.033,8.54-3.323a11.651,11.651,0,0,0,2.087-7.282q.007-6.242-2.488-8.12-2.5-2.5-8.111-2.507l-73.281-.085.019-17.9a10.541,10.541,0,0,0-3.53-8.125c-1.664-1.456-4.572-2.3-8.53-2.3-4.581,0-7.5.824-8.955,2.281a11.679,11.679,0,0,0-3.341,8.115l-.019,17.905-69.95-.08q-5.308-.007-8.12,2.488-2.5,2.807-2.507,8.111-.008,5.939,2.488,8.125,2.806,2.5,8.111,2.507l69.949.08-.028,27.689-63.492-.071a10.3,10.3,0,0,0-7.084,2.281,10.051,10.051,0,0,0-2.714,7.489c0,3.332.617,5.829,2.276,7.5,1.041,2.083,3.539,2.922,7.5,2.927l9.365.009a10.061,10.061,0,0,0-2.715,7.489c.2,3.332,2.908,7.705,8.314,13.333,12.89,14.176,25.157,25.223,36.8,33.56-17.9,6.641-39.985,13.489-66.428,20.535-2.918,1.659-4.172,4.991-4.176,9.779a9.418,9.418,0,0,0,3.115,6.456,11.636,11.636,0,0,0,8.323,3.342c6.249-.414,15.406-2.271,27.278-5.8,21.246-6.847,39.57-13.7,55.4-20.341,74.006,35.177,229.185,25.667,237.512,25.676,8.328-.825,14.365-2.691,18.117-5.392,4.166-3.327,6.461-7.488,6.466-12.484l.127-109.919,16.241.019c4.161,0,7.079-1.032,8.955-3.526,1.041-1.253,1.668-3.958,1.673-7.705C986.8,191.252,985.763,188.132,983.887,186.883ZM698.351,285.222a13.382,13.382,0,0,1-2.913-1.663c-16.434-10.43-29.95-22.316-40.762-35.649-1.456-1.668-3.322-3.751-5.406-6.046-.207,0-.409-.415-.621-.83l97.43.113c2.078,0,3.331.627,3.327,1.669-.839,4.581-5.425,10.613-13.342,17.682a164.436,164.436,0,0,1-35.422,23.687C699.812,284.605,699.185,284.812,698.351,285.222Z" fill="#fff"/><path d="M895.091,283.163c1.042.834,2.706,1.249,5.2,1.254,3.539,0,6.244-.821,8.332-2.9,1.456-1.25,2.3-3.121,2.3-6.033.01-6.245-2.272-13.748-6.424-22.909-7.479-15-13.507-24.579-17.871-29.164a19.345,19.345,0,0,0-8.116-3.134,15.942,15.942,0,0,0-5.622,1.032,11.983,11.983,0,0,0-5,4.576,11.453,11.453,0,0,0-.834,4.162,9.822,9.822,0,0,0,1.658,5.415c10.8,19.582,18.7,34.371,23.471,44.159A7.3,7.3,0,0,0,895.091,283.163Z" fill="#fff"/></svg>