<?xml version="1.0" encoding="utf-8"?>
<!-- Generator: Adobe Illustrator 22.0.0, SVG Export Plug-In . SVG Version: 6.00 Build 0)  -->
<svg version="1.1" id="圖層_1" xmlns="http://www.w3.org/2000/svg" xmlns:xlink="http://www.w3.org/1999/xlink" x="0px" y="0px"
	 viewBox="0 0 83 32" style="enable-background:new 0 0 83 32;" xml:space="preserve">
<style type="text/css">
	.st0{fill:#E74E95;}
	.st1{fill:#FFFFFF;}
	.st2{fill:url(#SVGID_1_);}
	.st3{fill:url(#SVGID_2_);}
	.st4{fill:url(#SVGID_3_);}
	.st5{fill:url(#SVGID_4_);}
	.st6{fill:url(#SVGID_5_);}
	.st7{fill:url(#SVGID_6_);}
	.st8{fill:url(#SVGID_7_);}
	.st9{fill:url(#SVGID_8_);}
	.st10{fill:url(#SVGID_9_);}
	.st11{fill:url(#SVGID_10_);}
	.st12{fill:url(#SVGID_11_);}
	.st13{fill:url(#SVGID_12_);}
	.st14{fill:url(#SVGID_13_);}
	.st15{fill:url(#SVGID_14_);}
	.st16{fill:url(#SVGID_15_);}
</style>
<rect class="st0" width="83" height="31.9"/>
<g>
	<g>
		<path class="st1" d="M70.6,20.3c-0.1,0-0.2-0.2-0.2-0.4c0,0,0-2.8,0-3.8c0-1,0-2.3-1.8-2.6c-2.3-0.3-3.4,1.1-3.6,1.4l1.4,1
			c0.1-0.4,0.2-0.9,0.5-1.3c0.2-0.3,1.1-0.6,1.5-0.1c0.2,0.2,0.2,0.5,0.2,0.9v0.7c-0.7,0.1-2.2,0-3.5,1.1c-0.4,0.3-0.6,0.8-0.7,1.3
			c-0.1,0.7,0.1,1.4,0.6,1.9c0.5,0.5,1.2,0.9,2.1,0.9c0.7,0,1.5-0.2,2.1-0.7c0.2,0.3,0.5,0.5,0.9,0.6c0.2,0,0.5,0,0.7-0.4
			c0.1-0.2,0-0.3,0.8-0.5v-0.2C71.6,20.2,70.7,20.3,70.6,20.3z M68.7,20.1c-0.3,0.2-0.6,0.4-1,0.5c-0.4,0.1-0.8-0.1-1-0.4
			c-0.4-0.4-0.4-1.2-0.3-1.8c0.1-0.4,0.4-0.7,0.7-0.9c0.4-0.2,1-0.4,1.6-0.5V20.1z"/>
		<path class="st1" d="M77.8,13.5c-0.6,1.3-1.7,3.6-2.6,5.3c-0.8-1.6-1.6-3.8-2-5.3l-1.9,1c0.9,2,2.4,4.2,3.5,5c0,0-1.9,4-2.3,4.7
			h1.3L79,13.9L77.8,13.5z"/>
		<path class="st1" d="M46,15.4c-0.4,1.4-1,2.8-1.9,3.9l1.6,1.4c0.5-1.2,0.7-3.1,0.4-5.3L46,15.4z"/>
		<path class="st1" d="M44.4,12.6l-0.1,0.1c0.5,0.4,0.5,0.7,0.6,1.6c0,0.3,0.4,0.4,0.6,0.4c0.4,0,0.9-0.3,0.8-0.7
			C46.3,12.9,45.1,12.8,44.4,12.6z"/>
		<path class="st1" d="M48.3,18.1h6.2v-0.5H47l-0.2,1.5h6.4c-0.1,0.8-0.1,1.1-0.7,1.1c-0.5,0-2.5,0-3.1,0l0,0.2
			c1,0.1,1.6,0.2,2.3,0.4c0.4,0.1,0.5,0.4,1.1,0.4c0.5,0,1.4,0,1.7-0.8c0.1-0.4,0.2-1.2,0.2-1.7h-6.5L48.3,18.1z"/>
		<path class="st1" d="M44.5,10.3l-0.1,0.1c0.3,0.3,0.6,0.6,0.8,1.2c0.1,0.5,0.2,0.7,0.8,0.7c0.4,0,0.7-0.3,0.7-0.7
			C46.7,10.7,45.1,10.4,44.5,10.3z"/>
		<path class="st1" d="M64.6,14.1c0-0.8-0.3-1.6-0.8-2.1c-0.5-0.5-1.4-0.9-2.2-0.9h-4.7v4.8h1.9v-4.1h1.9c0.9,0,1.4,0.8,1.6,1.3
			c0.2,0.5,0.3,1.7,0,2.3c-0.2,0.6-0.8,1.1-1.5,1.1h-14v0.6h10.1V21h1.9v-3.9h2.9c1,0,1.9-0.3,2.4-1C64.5,15.6,64.6,14.9,64.6,14.1z
			"/>
		<path class="st1" d="M52.4,11.4h-0.9c0.1-0.1,0.2-0.2,0.2-0.4c0-1.1-1.6-1.1-2.3-0.9l0,0.1c0.1,0.1,0.4,0.3,0.5,0.4
			c0.2,0.2,0.2,0.5,0.4,0.7h-1.2v0.5h3.3V11.4z"/>
		<rect x="49.7" y="13.3" class="st1" width="2.2" height="0.5"/>
		<rect x="49.7" y="12.3" class="st1" width="2.2" height="0.5"/>
		<path class="st1" d="M52.5,13.7c0.3-0.1,0.5-0.1,0.7-0.2c-0.2,0.3-0.6,1.1-0.7,1.2c-0.1,0.1-0.2,0.1-0.2,0.1l0.1,1.2
			c0.6-0.1,1.4-0.5,1.8-1c0,0,0.1,0.6,0.3,0.5c0.2,0,0.4-0.1,0.4-0.4c0-0.7-1-1.2-1-1.2c0.1,0.3,0.1,0.4,0.2,0.6
			c-0.5,0.1-1,0.2-1.2,0.2c0.9-0.6,1.3-1.6,1.8-2.5h-1c0,0.2-0.1,0.3-0.1,0.4c-0.2,0-0.2,0-0.4,0c0.5-0.3,1-1.5,1.2-1.8l-1.3,0
			c-0.1,1.1-0.3,1.5-0.4,1.7c-0.1,0.1-0.1,0.2-0.3,0.2L52.5,13.7z"/>
		<path class="st1" d="M47,14.8l0.1,1.2c0.6-0.1,1.4-0.5,1.8-1c0,0,0.1,0.6,0.4,0.5c0.1,0,0.2,0,0.3-0.1v0.5h2.6v-1.7h-2.6v0.6
			c-0.3-0.5-0.9-0.8-0.9-0.8c0.1,0.3,0.1,0.4,0.2,0.6c-0.5,0.1-1,0.2-1.2,0.2c0.9-0.6,1.3-1.6,1.8-2.5h-1c0,0.2-0.1,0.3-0.1,0.4
			c-0.2,0-0.2,0-0.4,0c0.5-0.3,1-1.5,1.2-1.8l-1.3,0c-0.1,1.1-0.3,1.5-0.4,1.7c-0.1,0.1-0.1,0.2-0.3,0.2l0.1,1
			c0.3-0.1,0.5-0.1,0.7-0.2c-0.2,0.3-0.6,1.1-0.7,1.2C47.1,14.8,47,14.8,47,14.8z M50.4,14.7h0.9v0.7h-0.9V14.7z"/>
		<path class="st1" d="M39.4,11.4l-0.1,0.1c0.8,0.6,1.1,0.9,1.6,1.7c-1.5,0.1-5.7,0.2-6.6,0.1c1.5-0.6,3.2-1.4,4.3-2.8h-2.5
			c-1.1,1.6-2,2.4-2.4,2.6c-0.2,0.1-0.5,0.1-0.6,0.2l0.3,1.5c2.8-0.2,5.6-0.6,7.7-1.4c0.3,0.5,0.4,1.1,1.2,1.2
			c0.5,0.1,0.9-0.3,0.9-0.9C43,12.3,41.2,11.8,39.4,11.4z"/>
		<path class="st1" d="M34.1,21h7.6v-5.3h-7.6V21z M35.9,16.3H40v4.2h-4.2V16.3z"/>
	</g>
	<g>
		
			<radialGradient id="SVGID_1_" cx="26.7691" cy="18.8869" r="6.5303" gradientTransform="matrix(-0.853 0.522 -0.4101 -0.6702 57.3484 17.5726)" gradientUnits="userSpaceOnUse">
			<stop  offset="3.394870e-02" style="stop-color:#A30000"/>
			<stop  offset="0.2956" style="stop-color:#B40005"/>
			<stop  offset="0.5365" style="stop-color:#BE0008"/>
			<stop  offset="0.8501" style="stop-color:#E06651"/>
			<stop  offset="1" style="stop-color:#F19975"/>
		</radialGradient>
		<path class="st2" d="M28.3,20.9c0-1.2-1.3-2.3-3.5-3.1c-2,1.1-4.8,1.8-7.8,1.9v4.7C23.3,24.3,28.3,22.8,28.3,20.9z"/>
		
			<radialGradient id="SVGID_2_" cx="13.217" cy="22.5514" r="9.546" gradientTransform="matrix(-0.9496 -0.3136 0.1962 -0.5939 21.3435 40.0904)" gradientUnits="userSpaceOnUse">
			<stop  offset="0" style="stop-color:#00388A"/>
			<stop  offset="0.1555" style="stop-color:#004194"/>
			<stop  offset="0.4083" style="stop-color:#004DA0"/>
			<stop  offset="0.5156" style="stop-color:#1B5FAB"/>
			<stop  offset="0.8473" style="stop-color:#6895CC"/>
			<stop  offset="1" style="stop-color:#87AAD9"/>
		</radialGradient>
		<path class="st3" d="M7.5,17.9C5.3,18.7,4,19.7,4,20.9c0,2.5,7.9,3.7,13,3.5v-4.7C13.2,19.9,9.7,19.1,7.5,17.9z"/>
		<linearGradient id="SVGID_3_" gradientUnits="userSpaceOnUse" x1="10.607" y1="6.4143" x2="17.1469" y2="26.6991">
			<stop  offset="0" style="stop-color:#7B5430"/>
			<stop  offset="1.868788e-03" style="stop-color:#7D5631"/>
			<stop  offset="4.013734e-02" style="stop-color:#987043"/>
			<stop  offset="8.154856e-02" style="stop-color:#AD8551"/>
			<stop  offset="0.1278" style="stop-color:#BC945A"/>
			<stop  offset="0.1823" style="stop-color:#C49C60"/>
			<stop  offset="0.2653" style="stop-color:#C79F62"/>
			<stop  offset="0.398" style="stop-color:#C29B5F"/>
			<stop  offset="0.5506" style="stop-color:#B48D57"/>
			<stop  offset="0.713" style="stop-color:#9D784A"/>
			<stop  offset="0.8813" style="stop-color:#7D5A37"/>
			<stop  offset="1" style="stop-color:#624027"/>
		</linearGradient>
		<path class="st4" d="M19.3,26c-2.4,0-5.5-4.7-6.8-10.4c-1.3-5.4-0.6-9.8,1.4-10.4c0,0,0,0,0,0l-2.4,0.7c-2,0.6-2.7,5-1.4,10.4
			c1.4,5.8,4.4,10.4,6.8,10.4c0.2,0,0.3,0,0.5-0.1c0.5-0.1,2.3-0.7,2.3-0.7c0,0,0,0,0,0C19.7,26,19.5,26,19.3,26z"/>
		<linearGradient id="SVGID_4_" gradientUnits="userSpaceOnUse" x1="12.8283" y1="3.0473" x2="20.1566" y2="25.8375">
			<stop  offset="1.383310e-02" style="stop-color:#C79F62"/>
			<stop  offset="2.289795e-02" style="stop-color:#C9A267"/>
			<stop  offset="0.1362" style="stop-color:#DCC39D"/>
			<stop  offset="0.2417" style="stop-color:#EBDDC7"/>
			<stop  offset="0.3364" style="stop-color:#F6F0E6"/>
			<stop  offset="0.4169" style="stop-color:#FDFBF8"/>
			<stop  offset="0.4736" style="stop-color:#FFFFFF"/>
			<stop  offset="0.5355" style="stop-color:#FDFBF9"/>
			<stop  offset="0.6217" style="stop-color:#F6F0E7"/>
			<stop  offset="0.7222" style="stop-color:#ECDEC9"/>
			<stop  offset="0.8335" style="stop-color:#DDC5A0"/>
			<stop  offset="0.9523" style="stop-color:#CAA56B"/>
			<stop  offset="0.9717" style="stop-color:#C79F62"/>
		</linearGradient>
		<path class="st5" d="M21.2,15.6c-1.4-5.8-4.4-10.4-6.8-10.4c-2.4,0-3.3,4.7-1.9,10.4c1.4,5.8,4.4,10.4,6.8,10.4
			C21.7,26,22.6,21.4,21.2,15.6z"/>
		<linearGradient id="SVGID_5_" gradientUnits="userSpaceOnUse" x1="16.9009" y1="12.8153" x2="18.8962" y2="18.8843">
			<stop  offset="0" style="stop-color:#7B5430"/>
			<stop  offset="1.868788e-03" style="stop-color:#7D5631"/>
			<stop  offset="4.013734e-02" style="stop-color:#987043"/>
			<stop  offset="8.154856e-02" style="stop-color:#AD8551"/>
			<stop  offset="0.1278" style="stop-color:#BC945A"/>
			<stop  offset="0.1823" style="stop-color:#C49C60"/>
			<stop  offset="0.2653" style="stop-color:#C79F62"/>
			<stop  offset="0.398" style="stop-color:#C29B5F"/>
			<stop  offset="0.5506" style="stop-color:#B48D57"/>
			<stop  offset="0.713" style="stop-color:#9D784A"/>
			<stop  offset="0.8813" style="stop-color:#7D5A37"/>
			<stop  offset="1" style="stop-color:#624027"/>
		</linearGradient>
		<polygon class="st6" points="17,12.7 17,16.5 18.9,18.8 18.9,15.5 		"/>
		<g>
			<radialGradient id="SVGID_6_" cx="28.096" cy="18.2218" r="10.9321" gradientUnits="userSpaceOnUse">
				<stop  offset="0" style="stop-color:#FFE9B3"/>
				<stop  offset="0.3559" style="stop-color:#F9BF2C"/>
				<stop  offset="0.4828" style="stop-color:#F1B226"/>
				<stop  offset="0.7195" style="stop-color:#DA8E16"/>
				<stop  offset="1" style="stop-color:#BB5D00"/>
			</radialGradient>
			<path class="st7" d="M20.8,12.1v4.8c0.5,0.1,0.9,0.1,1.3,0.2v-4.8C21.7,12.3,21.3,12.2,20.8,12.1z"/>
			<radialGradient id="SVGID_7_" cx="28.0894" cy="18.2218" r="10.9235" gradientUnits="userSpaceOnUse">
				<stop  offset="0" style="stop-color:#FFE9B3"/>
				<stop  offset="0.3559" style="stop-color:#F9BF2C"/>
				<stop  offset="0.4828" style="stop-color:#F1B226"/>
				<stop  offset="0.7195" style="stop-color:#DA8E16"/>
				<stop  offset="1" style="stop-color:#BB5D00"/>
			</radialGradient>
			<path class="st8" d="M19.9,12v4.8c0.2,0,0.3,0,0.5,0.1V12C20.2,12,20,12,19.9,12z"/>
			<radialGradient id="SVGID_8_" cx="28.0993" cy="18.2217" r="10.936" gradientUnits="userSpaceOnUse">
				<stop  offset="0" style="stop-color:#FFE9B3"/>
				<stop  offset="0.3559" style="stop-color:#F9BF2C"/>
				<stop  offset="0.4828" style="stop-color:#F1B226"/>
				<stop  offset="0.7195" style="stop-color:#DA8E16"/>
				<stop  offset="1" style="stop-color:#BB5D00"/>
			</radialGradient>
			<path class="st9" d="M27.5,14.6v4.8c0.5,0.5,0.8,1,0.8,1.6v-4.8C28.3,15.6,28,15,27.5,14.6z"/>
			<radialGradient id="SVGID_9_" cx="28.0981" cy="18.2219" r="10.933" gradientUnits="userSpaceOnUse">
				<stop  offset="0" style="stop-color:#FFE9B3"/>
				<stop  offset="0.3559" style="stop-color:#F9BF2C"/>
				<stop  offset="0.4828" style="stop-color:#F1B226"/>
				<stop  offset="0.7195" style="stop-color:#DA8E16"/>
				<stop  offset="1" style="stop-color:#BB5D00"/>
			</radialGradient>
			<path class="st10" d="M25,13.1v4.8c0.8,0.3,1.5,0.6,2,1v-4.8C26.5,13.8,25.8,13.4,25,13.1z"/>
			<radialGradient id="SVGID_10_" cx="28.097" cy="18.2213" r="10.9333" gradientUnits="userSpaceOnUse">
				<stop  offset="0" style="stop-color:#FFE9B3"/>
				<stop  offset="0.3559" style="stop-color:#F9BF2C"/>
				<stop  offset="0.4828" style="stop-color:#F1B226"/>
				<stop  offset="0.7195" style="stop-color:#DA8E16"/>
				<stop  offset="1" style="stop-color:#BB5D00"/>
			</radialGradient>
			<path class="st11" d="M22.7,12.5v4.8c0.7,0.1,1.3,0.3,1.8,0.5V13C23.9,12.8,23.3,12.6,22.7,12.5z"/>
		</g>
		<g>
			<radialGradient id="SVGID_11_" cx="14.5535" cy="14.4807" r="11.1568" gradientUnits="userSpaceOnUse">
				<stop  offset="0" style="stop-color:#B3D796"/>
				<stop  offset="0.5858" style="stop-color:#40B15D"/>
				<stop  offset="0.6792" style="stop-color:#3AAC59"/>
				<stop  offset="0.7981" style="stop-color:#2B9E4F"/>
				<stop  offset="0.9302" style="stop-color:#11863E"/>
				<stop  offset="1" style="stop-color:#007733"/>
			</radialGradient>
			<path class="st12" d="M4.9,14.5v4.8c0.2-0.2,0.4-0.3,0.7-0.5V14C5.3,14.2,5.1,14.3,4.9,14.5z"/>
			<radialGradient id="SVGID_12_" cx="14.5492" cy="14.4806" r="11.1528" gradientUnits="userSpaceOnUse">
				<stop  offset="0" style="stop-color:#B3D796"/>
				<stop  offset="0.5858" style="stop-color:#40B15D"/>
				<stop  offset="0.6792" style="stop-color:#3AAC59"/>
				<stop  offset="0.7981" style="stop-color:#2B9E4F"/>
				<stop  offset="0.9302" style="stop-color:#11863E"/>
				<stop  offset="1" style="stop-color:#007733"/>
			</radialGradient>
			<path class="st13" d="M4,16.1v4.8c0-0.4,0.1-0.7,0.4-1.1v-4.8C4.1,15.4,4,15.8,4,16.1z"/>
			<radialGradient id="SVGID_13_" cx="14.5474" cy="14.4806" r="11.1509" gradientUnits="userSpaceOnUse">
				<stop  offset="0" style="stop-color:#B3D796"/>
				<stop  offset="0.5858" style="stop-color:#40B15D"/>
				<stop  offset="0.6792" style="stop-color:#3AAC59"/>
				<stop  offset="0.7981" style="stop-color:#2B9E4F"/>
				<stop  offset="0.9302" style="stop-color:#11863E"/>
				<stop  offset="1" style="stop-color:#007733"/>
			</radialGradient>
			<path class="st14" d="M15.3,14l-3.7-2.7c-0.2-0.1-0.4,0-0.4,0.2v0.7c-0.3,0-0.6,0.1-0.8,0.1v4.8c0.3-0.1,0.5-0.1,0.8-0.1v0.5
				c0,0.2,0.2,0.3,0.4,0.2l3.7-3.3C15.4,14.3,15.4,14.1,15.3,14z"/>
			<radialGradient id="SVGID_14_" cx="14.5459" cy="14.4804" r="11.1491" gradientUnits="userSpaceOnUse">
				<stop  offset="0" style="stop-color:#B3D796"/>
				<stop  offset="0.5858" style="stop-color:#40B15D"/>
				<stop  offset="0.6792" style="stop-color:#3AAC59"/>
				<stop  offset="0.7981" style="stop-color:#2B9E4F"/>
				<stop  offset="0.9302" style="stop-color:#11863E"/>
				<stop  offset="1" style="stop-color:#007733"/>
			</radialGradient>
			<path class="st15" d="M7.7,13v4.8c0.7-0.2,1.4-0.4,2.2-0.6v-4.8C9.1,12.6,8.4,12.8,7.7,13z"/>
			<radialGradient id="SVGID_15_" cx="14.5504" cy="14.4806" r="11.1554" gradientUnits="userSpaceOnUse">
				<stop  offset="0" style="stop-color:#B3D796"/>
				<stop  offset="0.5858" style="stop-color:#40B15D"/>
				<stop  offset="0.6792" style="stop-color:#3AAC59"/>
				<stop  offset="0.7981" style="stop-color:#2B9E4F"/>
				<stop  offset="0.9302" style="stop-color:#11863E"/>
				<stop  offset="1" style="stop-color:#007733"/>
			</radialGradient>
			<path class="st16" d="M6,13.7v4.8c0.4-0.2,0.7-0.4,1.2-0.5v-4.8C6.8,13.4,6.4,13.5,6,13.7z"/>
		</g>
	</g>
</g>
</svg>
